<svg width="12" height="13" viewBox="0 0 12 13" fill="none" xmlns="http://www.w3.org/2000/svg">
<path fill-rule="evenodd" clip-rule="evenodd" d="M11.4608 0.898526C11.6026 1.04033 11.6506 1.25084 11.5844 1.44013L7.93002 11.8812C7.8593 12.0832 7.67243 12.2216 7.45855 12.2303C7.24468 12.2391 7.04715 12.1163 6.96021 11.9207L4.95355 7.40575L0.438569 5.39909C0.242967 5.31216 0.120251 5.11463 0.128977 4.90076C0.137702 4.68688 0.2761 4.50001 0.478135 4.42929L10.9192 0.774929C11.1085 0.708678 11.319 0.756716 11.4608 0.898526ZM5.97174 7.12586L7.37953 10.2934L9.84316 3.25444L5.97174 7.12586ZM9.10487 2.51614L2.06592 4.97978L5.23345 6.38757L9.10487 2.51614Z" fill="white"/>
</svg>
