<svg width="23" height="24" viewBox="0 0 23 24" fill="none" xmlns="http://www.w3.org/2000/svg">
<path opacity="0.1" fill-rule="evenodd" clip-rule="evenodd" d="M0.262787 11.9059C0.262787 5.75505 5.24904 0.768799 11.3999 0.768799C17.5508 0.768799 22.537 5.75505 22.537 11.9059C22.537 18.0568 17.5508 23.043 11.3999 23.043C5.24904 23.043 0.262787 18.0568 0.262787 11.9059Z" fill="white"/>
<path fill-rule="evenodd" clip-rule="evenodd" d="M17.3397 11.8976C17.3397 12.2993 17.2988 12.7005 17.2185 13.0915C17.1402 13.4732 17.0241 13.848 16.8722 14.2062C16.7237 14.5582 16.5395 14.8973 16.3243 15.2135C16.1123 15.5278 15.868 15.8227 15.5997 16.0914C15.3309 16.359 15.035 16.6026 14.7209 16.8155C14.4036 17.0292 14.064 17.2131 13.7119 17.3623C13.3531 17.5135 12.9775 17.6293 12.5961 17.7075C12.2045 17.788 11.8019 17.8292 11.3996 17.8292C10.9971 17.8292 10.5945 17.788 10.2035 17.7075C9.82152 17.6293 9.44591 17.5135 9.08741 17.3623C8.73531 17.2131 8.39536 17.0292 8.07806 16.8155C7.76395 16.6026 7.4681 16.359 7.19981 16.0914C6.93124 15.8227 6.68701 15.5278 6.4747 15.2135C6.26064 14.8973 6.07616 14.5581 5.92709 14.2062C5.77509 13.848 5.6588 13.4732 5.58019 13.0915C5.50073 12.7005 5.46011 12.2993 5.46011 11.8976C5.46011 11.4956 5.50071 11.0936 5.58022 10.7035C5.65882 10.3217 5.77511 9.94639 5.92712 9.58871C6.07619 9.23653 6.26067 8.8971 6.47472 8.58081C6.68703 8.26629 6.93126 7.97201 7.19983 7.70295C7.46813 7.43532 7.76397 7.19235 8.07809 6.97976C8.39539 6.76514 8.73533 6.58125 9.08744 6.43179C9.44594 6.28028 9.82152 6.16416 10.2035 6.08655C10.5945 6.00662 10.9971 5.96606 11.3997 5.96606C11.8019 5.96606 12.2045 6.00662 12.5961 6.08655C12.9775 6.16418 13.3531 6.28031 13.7119 6.43179C14.064 6.58123 14.4036 6.76514 14.7209 6.97976C15.0351 7.19235 15.3309 7.43532 15.5998 7.70295C15.8681 7.97201 16.1123 8.26629 16.3243 8.58081C16.5395 8.8971 16.7237 9.23656 16.8722 9.58871C17.0241 9.94639 17.1402 10.3217 17.2185 10.7035C17.2988 11.0936 17.3397 11.4956 17.3397 11.8976ZM9.23531 7.31601C7.82075 7.98303 6.76499 9.2846 6.43578 10.8532C6.56951 10.8544 8.68335 10.881 11.1188 10.2349C10.2409 8.67724 9.30289 7.40611 9.23531 7.31601ZM11.5391 11.0149C8.92728 11.7957 6.42099 11.7395 6.33109 11.736C6.32963 11.7905 6.32702 11.8432 6.32702 11.8976C6.32702 13.1989 6.81864 14.3852 7.62671 15.2822C7.62496 15.2796 9.01314 12.8204 11.7506 11.9364C11.8167 11.9144 11.884 11.8947 11.9507 11.8756C11.8234 11.5877 11.6844 11.2993 11.5391 11.0149ZM14.7496 8.09598C13.8566 7.30963 12.6839 6.83264 11.3996 6.83264C10.9875 6.83264 10.5875 6.88247 10.2043 6.97456C10.2803 7.07652 11.2331 8.3387 12.1006 9.9293C14.0147 9.21278 14.7371 8.11451 14.7496 8.09598ZM12.2965 12.7149C12.2852 12.7187 12.2739 12.7219 12.2628 12.7259C9.2699 13.7678 8.29253 15.8675 8.28195 15.8904C9.14311 16.5591 10.2232 16.9626 11.3997 16.9626C12.1021 16.9626 12.7713 16.8198 13.38 16.5612C13.3049 16.1186 13.0102 14.5674 12.2965 12.7149ZM14.2342 16.0984C15.3732 15.3309 16.1821 14.1121 16.4078 12.7004C16.3034 12.6668 14.8842 12.2182 13.2469 12.4803C13.9122 14.3061 14.1826 15.7931 14.2342 16.0984ZM12.4911 10.6841C12.6088 10.9256 12.7228 11.1715 12.8281 11.4186C12.8655 11.5072 12.9021 11.5941 12.9377 11.681C14.6803 11.462 16.3971 11.8304 16.4705 11.8455C16.4589 10.6447 16.0287 9.54265 15.317 8.67987C15.3074 8.69345 14.4938 9.86731 12.4911 10.6841Z" fill="white"/>
</svg>
