<svg width="24" height="24" viewBox="0 0 24 24" fill="none" xmlns="http://www.w3.org/2000/svg">
<path opacity="0.1" fill-rule="evenodd" clip-rule="evenodd" d="M0.851471 11.9059C0.851471 5.75505 5.83773 0.768799 11.9886 0.768799C18.1394 0.768799 23.1257 5.75505 23.1257 11.9059C23.1257 18.0568 18.1394 23.043 11.9886 23.043C5.83773 23.043 0.851471 18.0568 0.851471 11.9059Z" fill="white"/>
<path fill-rule="evenodd" clip-rule="evenodd" d="M11.9891 5.96606C10.376 5.96606 10.1735 5.97312 9.53995 6.00195C8.9076 6.03091 8.47597 6.13102 8.0983 6.27791C7.70763 6.42962 7.37623 6.63257 7.04607 6.96285C6.71567 7.293 6.51273 7.6244 6.36052 8.01494C6.21326 8.39274 6.11302 8.8245 6.08456 9.4566C6.05622 10.0902 6.0488 10.2928 6.0488 11.9059C6.0488 13.5191 6.05597 13.7209 6.08468 14.3545C6.11376 14.9868 6.21388 15.4185 6.36064 15.7962C6.51248 16.1868 6.71542 16.5182 7.0457 16.8484C7.37574 17.1788 7.70713 17.3822 8.09755 17.5339C8.47548 17.6808 8.90723 17.7809 9.53945 17.8099C10.173 17.8387 10.3754 17.8458 11.9884 17.8458C13.6017 17.8458 13.8035 17.8387 14.4371 17.8099C15.0695 17.7809 15.5016 17.6808 15.8795 17.5339C16.2701 17.3822 16.6009 17.1788 16.931 16.8484C17.2614 16.5182 17.4643 16.1868 17.6165 15.7963C17.7626 15.4185 17.8628 14.9867 17.8925 14.3546C17.921 13.721 17.9284 13.5191 17.9284 11.9059C17.9284 10.2928 17.921 10.0903 17.8925 9.45672C17.8628 8.82437 17.7626 8.39274 17.6165 8.01507C17.4643 7.6244 17.2614 7.293 16.931 6.96285C16.6006 6.63244 16.2702 6.4295 15.8791 6.27791C15.5005 6.13102 15.0686 6.03091 14.4362 6.00195C13.8027 5.97312 13.601 5.96606 11.9873 5.96606H11.9891ZM11.4563 7.03646C11.6144 7.03621 11.7909 7.03646 11.9891 7.03646C13.5751 7.03646 13.763 7.04215 14.3893 7.07061C14.9685 7.0971 15.2828 7.19387 15.4922 7.27517C15.7693 7.38283 15.967 7.51152 16.1747 7.71942C16.3826 7.92731 16.5113 8.12531 16.6192 8.4025C16.7005 8.61163 16.7974 8.92595 16.8238 9.50509C16.8523 10.1312 16.8584 10.3193 16.8584 11.9045C16.8584 13.4897 16.8523 13.6778 16.8238 14.304C16.7973 14.8831 16.7005 15.1974 16.6192 15.4066C16.5116 15.6838 16.3826 15.8812 16.1747 16.0889C15.9668 16.2968 15.7695 16.4255 15.4922 16.5332C15.283 16.6148 14.9685 16.7114 14.3893 16.7379C13.7632 16.7663 13.5751 16.7725 11.9891 16.7725C10.4031 16.7725 10.2151 16.7663 9.58893 16.7379C9.00979 16.7111 8.69547 16.6144 8.48597 16.533C8.20878 16.4254 8.01078 16.2967 7.80289 16.0888C7.59499 15.8809 7.46629 15.6834 7.35839 15.4061C7.27708 15.197 7.18019 14.8826 7.15383 14.3035C7.12537 13.6773 7.11968 13.4892 7.11968 11.9031C7.11968 10.3169 7.12537 10.1298 7.15383 9.5036C7.18031 8.92447 7.27708 8.61015 7.35839 8.40077C7.46605 8.12358 7.59499 7.92558 7.80289 7.71769C8.01078 7.50979 8.20878 7.38109 8.48597 7.27319C8.69535 7.19151 9.00979 7.09499 9.58893 7.06839C10.1369 7.04364 10.3492 7.03621 11.4563 7.03497V7.03646ZM15.1598 8.02272C14.7663 8.02272 14.447 8.34162 14.447 8.73526C14.447 9.12878 14.7663 9.44804 15.1598 9.44804C15.5533 9.44804 15.8726 9.12878 15.8726 8.73526C15.8726 8.34174 15.5533 8.02272 15.1598 8.02272ZM11.9892 8.85554C10.3046 8.85554 8.93879 10.2213 8.93879 11.9059C8.93879 13.5905 10.3046 14.9556 11.9892 14.9556C13.6737 14.9556 15.039 13.5905 15.039 11.9059C15.039 10.2213 13.6737 8.85554 11.9892 8.85554ZM11.9891 9.92595C13.0826 9.92595 13.9691 10.8124 13.9691 11.9059C13.9691 12.9993 13.0826 13.8859 11.9891 13.8859C10.8956 13.8859 10.0092 12.9993 10.0092 11.9059C10.0092 10.8124 10.8956 9.92595 11.9891 9.92595Z" fill="white"/>
</svg>
