<svg width="23" height="24" viewBox="0 0 23 24" fill="none" xmlns="http://www.w3.org/2000/svg">
<path opacity="0.1" fill-rule="evenodd" clip-rule="evenodd" d="M0.0854797 11.9059C0.0854797 5.75505 5.07173 0.768799 11.2226 0.768799C17.3734 0.768799 22.3597 5.75505 22.3597 11.9059C22.3597 18.0568 17.3734 23.043 11.2226 23.043C5.07173 23.043 0.0854797 18.0568 0.0854797 11.9059Z" fill="white"/>
<path fill-rule="evenodd" clip-rule="evenodd" d="M15.8638 8.07718C16.375 8.21744 16.7775 8.63073 16.9141 9.15557C17.1624 10.1068 17.1624 12.0915 17.1624 12.0915C17.1624 12.0915 17.1624 14.0761 16.9141 15.0274C16.7775 15.5523 16.375 15.9655 15.8638 16.1059C14.9375 16.3607 11.2226 16.3607 11.2226 16.3607C11.2226 16.3607 7.50773 16.3607 6.58133 16.1059C6.07017 15.9655 5.66761 15.5523 5.531 15.0274C5.28281 14.0761 5.28281 12.0915 5.28281 12.0915C5.28281 12.0915 5.28281 10.1068 5.531 9.15557C5.66761 8.63073 6.07017 8.21744 6.58133 8.07718C7.50773 7.82227 11.2226 7.82227 11.2226 7.82227C11.2226 7.82227 14.9375 7.82227 15.8638 8.07718ZM10.1089 10.4209V14.1333L13.0788 12.2771L10.1089 10.4209Z" fill="white"/>
</svg>
